<?xml version="1.0" encoding="UTF-8"?><svg id="Calque_2" xmlns="http://www.w3.org/2000/svg" viewBox="0 0 448 448"><defs><style>.cls-1{fill:#fff;}</style></defs><g id="Layer_1"><path class="cls-1" d="m421.8,375.1c-23.9,25.3-52.3,43.8-85.2,55.4-32.9,11.7-67.6,17.5-104.1,17.5s-66.7-5.5-95.3-16.6c-28.6-11-53.1-26.4-73.3-46.1-20.3-19.7-36-43.3-47.2-70.8S0,257,0,224.5s6.1-61.8,18.3-89.1,28.8-51,49.9-71.1c21.1-20.1,45.7-35.8,74-47.3C170.3,5.7,200.5,0,232.5,0c27.6,0,54.4,4,80.3,12,26,8,49,20.1,69.1,36.1,20.1,16.1,36.1,36.1,48.1,60.2s18,52.4,18,84.9c0,24.1-3.3,45.4-10,63.8-6.7,18.5-15.6,33.9-26.8,46.4-11.2,12.5-23.9,21.8-38.3,28s-29.5,9.3-45.3,9.3-29.2-3.8-39-11.4c-9.7-7.6-14.6-17.3-14.6-28.9h-3c-6.1,9.6-15.4,18.8-28,27.4s-28,13-46.3,13c-27.6,0-48.9-9-63.9-27.1s-22.5-41.5-22.5-70.5c0-16.9,2.8-33.5,8.5-50s13.8-31.1,24.3-44c10.5-12.8,23.1-23.2,37.7-31,14.6-7.8,30.8-11.7,48.7-11.7,15.4,0,28.4,3.2,39,9.6,10.5,6.4,17.4,14.3,20.7,23.5h.6l4.9-24.1h54.2l-23.9,113.9c-.8,5.6-1.9,11.8-3.3,18.7-1.4,6.8-2.1,13.2-2.1,19.3,0,6.8,1.3,12.5,4,17.2,2.6,4.6,7.8,6.9,15.5,6.9,15.8,0,28.9-8.4,39.3-25.3,10.3-16.9,15.5-39.5,15.5-68,0-24.1-4.1-45.5-12.2-64.1-8.1-18.7-19.4-34.3-33.8-47-14.4-12.6-31.6-22.2-51.4-28.6-19.9-6.4-41.6-9.6-65.1-9.6-25.6,0-49,4.5-70.3,13.5s-39.5,21.5-54.5,37.3c-15,15.9-26.7,34.5-35,56-8.4,21.4-12.6,44.6-12.6,69.5,0,26.5,4.4,50.4,13.1,71.7,8.7,21.3,21,39.4,36.8,54.5,15.8,15.1,34.7,26.6,56.6,34.6,21.9,8,46.1,12,72.4,12,32.9,0,61.2-5.2,84.9-15.7,23.7-10.4,45.5-24.9,65.4-43.4l33.6,36.2Zm-190.5-219.1c-9.7,0-18.3,2.8-25.6,8.4-7.3,5.6-13.5,12.7-18.6,21.4-5.1,8.6-8.9,18.2-11.6,28.6-2.6,10.4-4,20.5-4,30.1,0,4.8.5,9.9,1.5,15.4,1,5.4,3,10.4,6.1,15.1,3,4.6,7,8.4,11.9,11.4s11.4,4.5,19.5,4.5c11,0,20.3-2.7,28-8.1s14-12.2,18.9-20.5c4.9-8.2,8.4-17.2,10.7-26.8,2.2-9.6,3.3-18.5,3.3-26.5,0-6.4-.6-12.7-1.8-19-1.2-6.2-3.3-11.8-6.4-16.9-3-5-7.2-9.1-12.5-12.3-5.2-3.2-11.7-4.8-19.4-4.8Z"/></g></svg>