<?xml version="1.0" encoding="UTF-8"?><svg id="Calque_2" xmlns="http://www.w3.org/2000/svg" viewBox="0 0 20.67 23.98"><defs><style>.cls-1{fill:#fff;}</style></defs><g id="Calque_1-2"><g id="TikTok"><path class="cls-1" d="m11.02,0h4c.04.17.08.35.1.53.25,2.88,2.66,5.1,5.55,5.12v3.77c-.19.06-.38.09-.58.08-.93-.1-1.85-.27-2.76-.5-.78-.3-1.54-.66-2.28-1.06v6.59c.01.83-.04,1.65-.16,2.47-.36,2.78-2.13,5.17-4.68,6.32-.74.27-1.49.49-2.26.66h-1.39c-.06-.03-.12-.05-.18-.07-2.88-.37-5.25-2.44-6-5.25-.17-.6-.29-1.21-.38-1.82v-1.17c.11-.55.19-1.1.35-1.64.92-2.95,3.54-5.05,6.62-5.3.45-.07.9-.09,1.38-.13v3.71c0,.29-.15.33-.39.4-.77.18-1.52.41-2.25.7-1.15.43-1.91,1.55-1.89,2.78-.09,1.39.67,2.71,1.92,3.33,1.14.71,2.6.65,3.69-.14.8-.58,1.33-1.47,1.44-2.45.12-1,.17-2,.15-3V.6c.03-.21.01-.4,0-.6Z"/></g></g></svg>