<?xml version="1.0" encoding="UTF-8"?><svg id="Calque_2" xmlns="http://www.w3.org/2000/svg" viewBox="0 0 96.46 83.54"><defs><style>.cls-1{fill:#d9984a;}.cls-2{fill:#8c715a;stroke:#d9984a;stroke-miterlimit:10;stroke-width:2px;}</style></defs><g id="Logo"><g id="Logo-2"><polygon id="Triangle" class="cls-2" points="48.23 2 94.73 82.54 1.73 82.54 48.23 2"/><path d="m26.62,75.2h-5.58v-.84l1.63-.98-.92-2.23h-4.63l-.83,2.01,2.29,1.06-.48.98h-4.84v-.84l1.62-1.22,3.84-9.25,2.59-.76,4.26,10.33,1.53.76-.5.98Zm-7.16-9.71l-1.86,4.5h3.69l-1.83-4.5Z"/><path d="m37.13,75.22h-2.85v-5.05c0-.55-.08-.94-.25-1.16s-.47-.33-.92-.33c-.33,0-.66.06-.98.18-.33.12-.71.35-1.15.69v4.54l1.35.53-.3.6h-4.18v-.46l1.33-1.05v-4.25l-1.33-.78v-.46l2.56-1.26.5,1.95,2.13-1.7c.21-.08.49-.12.83-.12.68,0,1.22.21,1.62.62.4.42.6.98.6,1.69v4.68l1.35.54-.3.6Z"/><path d="m42.91,75.23c-.23.08-.51.12-.84.12-.83,0-1.44-.22-1.82-.65-.38-.43-.58-1.11-.58-2.02v-4.38h-1.62v-.62l2.85-3.31h.57v3.31h2.7v.62h-2.7v4.56c0,.81.39,1.21,1.17,1.21.21,0,.41-.04.61-.13.2-.09.44-.25.73-.48l.45.57-1.52,1.2Z"/><path d="m62.3,79.65h-4.94v-.46l2.08-1.11v-3.31l-1.39,1.11c-.32.08-.71.12-1.16.12-.66,0-1.25-.17-1.78-.52-.53-.34-.94-.81-1.23-1.4s-.44-1.24-.44-1.95c0-.77.24-1.49.71-2.17s1.06-1.21,1.76-1.62,1.39-.61,2.05-.61c.77,0,1.42.29,1.96.88l.75-1.05h.57v10.95l1.35.54-.3.6Zm-3.77-5.06c.27-.08.58-.25.92-.49v-3.42c-.06-.5-.29-.91-.7-1.22-.41-.32-.96-.47-1.66-.47-1.13,0-1.7.8-1.7,2.42,0,.94.2,1.73.58,2.36.39.64.95.95,1.68.95.3,0,.59-.04.86-.13Z"/><path d="m72.61,75.83h-2.85v-1.56l-1.9,1.59c-.21.08-.49.12-.83.12-.68,0-1.22-.21-1.62-.62-.4-.41-.6-.98-.6-1.69v-3.58l-1.33-.78v-.47l2.56-1.26h.57v5.34c0,.55.08.94.25,1.16s.47.33.92.33c.31,0,.62-.06.92-.17.3-.11.65-.34,1.06-.68v-3.47l-1.33-.78v-.47l2.57-1.26h.57v7.12l1.35.53-.3.6Z"/><path d="m79.34,75.86c-.4.08-.88.12-1.44.12-.66,0-1.25-.17-1.78-.52-.53-.34-.94-.81-1.23-1.4s-.44-1.24-.44-1.95c0-.77.24-1.49.71-2.17.47-.67,1.06-1.21,1.76-1.62.71-.41,1.39-.61,2.05-.61.95,0,1.69.38,2.21,1.12.53.75.79,1.74.79,2.97h-5.55c.06.85.29,1.54.7,2.08.4.54.96.81,1.66.81.65,0,1.58-.5,2.77-1.51l.45.57-2.65,2.1Zm-2.94-4.67h3.51c-.09-.54-.18-.95-.28-1.24s-.26-.52-.5-.71-.58-.28-1.04-.28c-1.08,0-1.65.74-1.7,2.22Z"/><path d="m53.5,33.77c-.36,0-.91-.31-1.64-.92-.73-.61-1.59-1.38-2.57-2.32-.6.17-1.17.26-1.72.26-1.09,0-2.06-.21-2.9-.62-.84-.41-1.49-.98-1.96-1.71-.47-.73-.7-1.56-.7-2.49s.35-1.83,1.05-2.64c.7-.81,1.57-1.45,2.6-1.92,1.03-.47,2.02-.7,2.96-.7,1.1,0,2.07.21,2.92.62.84.42,1.5.99,1.96,1.72s.69,1.56.69,2.49-.34,1.8-1.03,2.6c-.69.8-1.55,1.44-2.59,1.92.87.54,1.71,1.03,2.53,1.47.82.44,1.31.67,1.48.67h2.03l.38.67c-1.69.6-2.85.9-3.48.9Zm-8.65-6.27c.29.64.74,1.15,1.34,1.53.6.38,1.34.57,2.23.57.62,0,1.19-.15,1.7-.45.51-.3.92-.72,1.21-1.25.29-.53.44-1.13.44-1.79,0-.78-.15-1.49-.44-2.13s-.75-1.15-1.35-1.53c-.61-.38-1.35-.57-2.24-.57-.62,0-1.18.15-1.69.45-.51.3-.91.72-1.21,1.26-.29.54-.44,1.14-.44,1.79,0,.77.15,1.48.44,2.12Z"/><path d="m52.6,42.77h-3.07v-1.18l-1.79,1.21c-.21.06-.5.1-.87.1-.71,0-1.28-.17-1.7-.51s-.63-.8-.63-1.37v-2.79l-1.33-.63v-.5l2.71-1.04h.72v4.24c0,.43.08.73.24.9s.44.25.84.25c.28,0,.56-.04.84-.12.28-.08.6-.24.96-.46v-2.62l-1.33-.63v-.5l2.71-1.04h.72v5.71l1.35.4-.38.61Z"/><path d="m52.21,54.98h-3.08v-1.06l-1.7,1.09c-.2.06-.45.1-.75.1-.9,0-1.55-.18-1.96-.54-.41-.36-.61-.8-.61-1.31,0-.3.13-.6.38-.88.26-.29.62-.56,1.09-.82h3.54v-.56c0-.93-.61-1.39-1.83-1.39-.64,0-1.46.27-2.46.82l-.45-.55,2.13-1.38c.42-.09.95-.13,1.58-.13.99,0,1.76.19,2.31.57.55.38.82.94.82,1.67v3.36l1.35.43-.38.61Zm-3.08-1.78v-1.04h-2.57c-.2.19-.3.43-.3.71s.09.49.28.68c.19.18.43.27.73.27.56,0,1.18-.21,1.86-.62Z"/><path class="cls-1" d="m46.93,64.52c.22.09.3.21.29.42-.02.36-.04.73-.06,1.09.28,0,.56,0,.84,0,.44,0,.88,0,1.32,0-.02-.36-.04-.73-.06-1.09-.02-.27.01-.3.28-.42.58-.26.91-.68.91-1.26.01-1.33,0-2.65,0-3.98,0-.48-.41-.84-.96-.85-.84,0-1.67,0-2.51,0-.55,0-.96.35-.96.84,0,1.33-.01,2.66,0,3.99,0,.58.33,1,.91,1.25Zm.36-5.5v.17c0,1.02,0,2.04,0,3.07,0,.06,0,.11,0,.17.02.15.12.23.27.25.16.02.28-.05.33-.19.02-.06.02-.13.02-.2,0-1.02,0-2.04,0-3.07,0-.07,0-.13,0-.21h.63v.18c0,1.03,0,2.05,0,3.08,0,.05,0,.1,0,.15.02.15.15.26.31.26.16,0,.29-.11.32-.25,0-.05,0-.1,0-.15,0-1.03,0-2.05,0-3.08v-.19c.12,0,.21,0,.31,0,.21.01.32.12.32.33,0,.52,0,1.05,0,1.57,0,.76,0,1.51,0,2.27,0,.41-.2.69-.62.86-.41.17-.61.47-.59.87,0,.19,0,.37,0,.58h-.76c0-.2,0-.4,0-.6.02-.41-.18-.7-.6-.87-.4-.16-.6-.44-.6-.84,0-1.24.01-2.49,0-3.73,0-.47.22-.5.64-.45Z"/><path class="cls-1" d="m49.35,66.65c-.47,0-.94,0-1.4,0-.27,0-.55,0-.82,0-.06.98-.11,2.02-.18,3.26-.05.86-.13,2.2-.2,3.53-.01.28-.04.57.02.84.15.68.9,1.14,1.64,1.05.82-.1,1.38-.68,1.35-1.4-.02-.57-.06-1.15-.09-1.72-.1-1.85-.21-3.71-.31-5.56Zm-1.12,8.18c-.53,0-.91-.37-.88-.86.12-2.16.24-4.31.36-6.47,0-.09.02-.19.03-.3h1c.01.13.03.27.03.41.1,1.89.21,3.78.31,5.67.01.24.03.47.04.71.01.48-.37.84-.89.83Z"/></g></g></svg>