<?xml version="1.0" encoding="UTF-8"?><svg id="Calque_2" xmlns="http://www.w3.org/2000/svg" viewBox="0 0 31 46"><defs><style>.cls-1{fill:#fff;stroke:#d9984a;stroke-miterlimit:10;}</style></defs><g id="svg2"><g id="g10"><g id="g12"><g id="g14"><g id="g20"><path id="path22" class="cls-1" d="m16.75,2.38c0-1.04-.84-1.88-1.88-1.88s-1.88.84-1.88,1.88v11.88c0,.69-.56,1.25-1.25,1.25s-1.25-.56-1.25-1.25V2.38c0-1.04-.84-1.88-1.88-1.88s-1.88.84-1.88,1.88v11.88c0,.69-.56,1.25-1.25,1.25s-1.25-.56-1.25-1.25V2.38c0-1.04-.84-1.88-1.88-1.88s-1.88.84-1.88,1.88v11.25c0,.16.03.31.06.46-.04.26-.06.52-.06.79,0,2.89,2.19,7.45,5,8.05v19.45c0,1.73,1.4,3.12,3.12,3.12s3.12-1.4,3.12-3.12v-19.45c2.81-.61,5-5.16,5-8.05,0-.27-.03-.53-.06-.79.04-.15.06-.3.06-.46V2.38Z"/></g><g id="g24"><path id="path26" class="cls-1" d="m27.38.5c-.13,0-.25.02-.38.04-.08-.01-.16-.04-.24-.04-2.76,0-6.25,6.85-6.25,13.75,0,5.82,1.59,10.7,3.75,12.09v16.03c0,1.73,1.4,3.12,3.12,3.12s3.12-1.4,3.12-3.12V3.62c0-1.73-1.4-3.12-3.12-3.12"/></g></g></g></g></g></svg>